<?xml version="1.0" encoding="UTF-8"?>
<!-- Created with Inkscape (http://www.inkscape.org/) -->
<svg width="210mm" height="297mm" version="1.1" viewBox="0 0 210 297" xmlns="http://www.w3.org/2000/svg">
 <path d="m19.799 208.09c-0.12733-79.021-0.04335-92.592 0.57202-93.021 0.19559-0.13661 0.76415-1.8092 1.263-3.7167 6.777-25.912 29.47-45.784 58.042-50.825 7.6782-1.3548 19.302-1.4784 25.713-0.2731 10.237 1.9242 19.95 6.0176 27.785 11.71 2.2503 1.6349 4.221 2.9726 4.3794 2.9726 0.15815 0 0.28827-13.377 0.28827-29.727v-29.727h38.808l-0.32836 30.099c-0.18039 16.554-0.32889 56.686-0.32889 89.182l-4.6e-4 59.083h-1.2542c-0.6898 0-1.3362 0.27852-1.4364 0.61934-3.7522 12.754-7.829 20.591-14.761 28.372-10.741 12.058-24.669 20.051-41.121 23.599-6.7984 1.466-20.412 1.8162-27.204 0.69997-10.035-1.6496-21.057-6.2552-28.663-11.977-1.9498-1.4668-3.6419-2.6669-3.7602-2.6669-0.11808 0-0.21513 11.817-0.21513 26.259v26.259h-37.655zm88.811 6.094c15.184-3.9482 25.971-15.412 27.538-29.267 0.18412-1.6292 0.2242-2.9623 0.0888-2.9623-0.13556 0-1.7806 1.0368-3.6561 2.3038-1.8754 1.2671-5.8624 3.4853-8.86 4.9294-9.7424 4.6934-18.674 6.6344-30.545 6.6376-11.166 4e-3 -22.224-2.2726-31.589-6.5007-1.7462-0.78837-3.2517-1.3565-3.3457-1.2626-0.09373 0.0938 0.26565 1.4393 0.79906 2.9897 4.3176 12.549 14.88 21.125 29.425 23.892 5.1727 0.98387 14.842 0.61925 20.144-0.75971zm0.9982-52.2c6.148-1.7212 14.237-5.6687 14.746-7.1964 0.26874-0.80669-6.4816-5.0096-10.639-6.6239-5.5368-2.1499-10.124-2.9631-16.749-2.9689-6.8291-5e-3 -12.139 0.9464-17.362 3.1141-4.368 1.8128-9.2481 4.833-9.0194 5.5818 0.31319 1.0263 6.4941 4.7736 10.287 6.2367 6.4351 2.4826 9.7968 2.9961 18.324 2.7991 4.8955-0.1133 8.6701-0.45462 10.412-0.9425zm-46.333-37.916c7.1797-4.7885 15.026-8.0322 24.435-10.102 3.934-0.86531 6.4471-1.0556 13.963-1.0567 8.0729-1e-3 9.9269 0.15869 15.547 1.3422 6.0967 1.2838 13.738 3.7994 17.821 5.8663 1.0483 0.53102 2.0244 0.84658 2.1693 0.70174 0.49576-0.4958-0.91268-5.0075-2.6995-8.6458-2.2835-4.6492-7.8688-10.664-12.698-13.674-4.0851-2.5461-8.8351-4.4439-13.889-5.5492-4.859-1.0626-14.792-1.0384-19.875 0.0487-16.682 3.5669-28.547 15.964-29.84 31.179-0.24265 2.8572-0.17665 3.3408 0.40692 2.9727 0.38306-0.2416 2.4806-1.6292 4.6606-3.0832z" fill="#61dafb" fill-rule="evenodd" stroke-opacity="0"/>
</svg>
